HIERARCHY
ROOT Hips
{
	OFFSET -22.547621 92.150253 317.270813
	CHANNELS 6 Xposition Yposition Zposition Zrotation Yrotation Xrotation 
	JOINT LeftUpLeg
	{
		OFFSET 0.103459 1.857823 10.548503
		CHANNELS 3 Zrotation Yrotation Xrotation
		JOINT LeftLeg
		{
			OFFSET 43.499996 -0.000023 0.000000
			CHANNELS 3 Zrotation Yrotation Xrotation
			JOINT LeftFoot
			{
				OFFSET 42.372200 0.000004 0.000000
				CHANNELS 3 Zrotation Yrotation Xrotation
				JOINT LeftToe
				{
					OFFSET 17.300018 0.000006 0.000005
					CHANNELS 3 Zrotation Yrotation Xrotation
					End Site
					{
						OFFSET 0.000000 0.000000 0.000000
					}
				}
			}
		}
	}
	JOINT RightUpLeg
	{
		OFFSET 0.103455 1.857822 -10.548502
		CHANNELS 3 Zrotation Yrotation Xrotation
		JOINT RightLeg
		{
			OFFSET 43.500046 0.000008 0.000013
			CHANNELS 3 Zrotation Yrotation Xrotation
			JOINT RightFoot
			{
				OFFSET 42.372261 -0.000023 0.000013
				CHANNELS 3 Zrotation Yrotation Xrotation
				JOINT RightToe
				{
					OFFSET 17.299988 -0.000007 0.000011
					CHANNELS 3 Zrotation Yrotation Xrotation
					End Site
					{
						OFFSET 0.000000 0.000000 0.000000
					}
				}
			}
		}
	}
	JOINT Spine
	{
		OFFSET 6.901964 -2.603734 -0.000001
		CHANNELS 3 Zrotation Yrotation Xrotation
		JOINT Spine1
		{
			OFFSET 12.588106 0.000013 -0.000000
			CHANNELS 3 Zrotation Yrotation Xrotation
			JOINT Spine2
			{
				OFFSET 12.343193 -0.000017 0.000001
				CHANNELS 3 Zrotation Yrotation Xrotation
				JOINT Neck
				{
					OFFSET 25.832893 -0.000002 -0.000002
					CHANNELS 3 Zrotation Yrotation Xrotation
					JOINT Head
					{
						OFFSET 11.766612 0.000007 0.000002
						CHANNELS 3 Zrotation Yrotation Xrotation
						End Site
						{
							OFFSET 0.000000 0.000000 0.000000
						}
					}
				}
				JOINT LeftShoulder
				{
					OFFSET 19.745903 -1.480356 6.000103
					CHANNELS 3 Zrotation Yrotation Xrotation
					JOINT LeftArm
					{
						OFFSET 11.284128 0.000005 -0.000009
						CHANNELS 3 Zrotation Yrotation Xrotation
						JOINT LeftForeArm
						{
							OFFSET 33.000053 -0.000022 0.000028
							CHANNELS 3 Zrotation Yrotation Xrotation
							JOINT LeftHand
							{
								OFFSET 25.200006 0.000028 0.000005
								CHANNELS 3 Zrotation Yrotation Xrotation
								End Site
								{
									OFFSET 0.000000 0.000000 0.000000
								}
							}
						}
					}
				}
				JOINT RightShoulder
				{
					OFFSET 19.746094 -1.480350 -6.000075
					CHANNELS 3 Zrotation Yrotation Xrotation
					JOINT RightArm
					{
						OFFSET 11.284135 -0.000011 -0.000017
						CHANNELS 3 Zrotation Yrotation Xrotation
						JOINT RightForeArm
						{
							OFFSET 33.000092 0.000037 0.000003
							CHANNELS 3 Zrotation Yrotation Xrotation
							JOINT RightHand
							{
								OFFSET 25.199785 0.000114 0.000427
								CHANNELS 3 Zrotation Yrotation Xrotation
								End Site
								{
									OFFSET 0.000000 0.000000 0.000000
								}
							}
						}
					}
				}
			}
		}
	}
}
MOTION
Frames: 14
Frame Time: 0.033333
-22.547621 92.150253 317.270813 90.643939 4.880171 90.066713 -173.887163 -4.390601 -179.358705 -9.012493 -2.856606 -3.486912 82.559645 2.083130 -1.812910 21.454550 0.003091 -0.000000 -177.080618 5.163894 -179.440940 -13.974327 1.160139 1.215781 83.443089 0.004002 4.171758 21.454558 -0.003118 -0.000018 6.263160 -0.109990 0.054729 2.513358 -0.202142 0.105032 2.195262 -0.201385 0.106268 17.410099 0.564026 0.388325 -17.792824 -0.433012 0.585246 -82.956411 -80.694792 -99.664481 -13.968730 -7.012739 -8.185099 -6.823115 -12.358918 0.824921 13.571760 7.865263 4.461500 -172.487794 89.025218 9.192157 -3.535383 3.535221 7.504126 -14.746271 17.140126 -1.185741 14.889300 1.279695 1.438411 
-22.546431 92.149391 317.257385 90.640920 4.897005 90.056823 -173.878339 -4.390600 -179.366642 -9.012494 -2.856607 -3.486921 82.559638 2.083135 -1.809165 21.454553 0.003083 -0.000002 -177.072258 5.161185 -179.475078 -13.969357 1.164433 1.229534 83.438165 -0.005046 4.171769 21.454558 -0.003113 -0.000019 6.266002 -0.109992 0.054726 2.519043 -0.205387 0.107274 2.200954 -0.204593 0.108502 17.417343 0.564011 0.397728 -17.752497 -0.410074 0.585239 -82.988007 -80.657608 -99.636464 -14.003720 -7.019453 -8.185095 -6.843161 -12.379589 0.824916 13.595759 7.858611 4.451812 -173.119382 89.019816 8.559629 -3.549672 3.541467 7.461420 -14.746271 17.140129 -1.185742 14.896404 1.266190 1.450988 
-22.543350 92.146896 317.223999 90.632328 4.942068 90.024755 -173.849666 -4.395989 -179.387392 -9.012500 -2.862544 -3.493980 82.559638 2.090265 -1.799730 21.454550 0.003092 0.000001 -177.052164 5.154808 -179.553447 -13.961935 1.173597 1.255223 83.426874 -0.021936 4.171769 21.454558 -0.003108 -0.000017 6.273542 -0.110000 0.059620 2.534153 -0.214580 0.116950 2.216054 -0.213752 0.118245 17.469988 0.564020 0.415251 -17.715117 -0.380450 0.585235 -83.047088 -80.568119 -99.585715 -14.085519 -7.031848 -8.194238 -6.901256 -12.435643 0.824911 13.657593 7.833668 4.434572 -174.485201 89.000438 7.191466 -3.591971 3.555271 7.350616 -14.745730 17.142610 -1.185744 14.918060 1.218175 1.494901 
-22.539740 92.145363 317.189789 90.623011 4.986633 89.991021 -173.817932 -4.401499 -179.405437 -9.008308 -2.869257 -3.503931 82.559632 2.099578 -1.789480 21.454551 0.003094 0.000000 -177.027835 5.150099 -179.655395 -13.942579 1.192293 1.293412 83.408747 -0.047633 4.171760 21.454558 -0.003107 -0.000016 6.280843 -0.109997 0.066747 2.548729 -0.222199 0.131101 2.230638 -0.221265 0.132435 17.526588 0.561168 0.426739 -17.682376 -0.344074 0.583531 -83.018668 -80.537370 -99.617168 -14.100341 -7.040658 -8.218769 -6.965870 -12.475579 0.824920 13.683909 7.800402 4.434796 -175.292051 88.990309 6.383415 -3.632354 3.559642 7.269983 -14.758739 17.153750 -1.185745 14.940527 1.146342 1.535495 
-22.535290 92.145050 317.152710 90.615061 5.026744 89.964909 -173.792715 -4.405811 -179.416188 -9.001099 -2.876163 -3.513764 82.556339 2.109153 -1.777789 21.454553 0.003083 -0.000002 -177.001484 5.147595 -179.785155 -13.908674 1.219787 1.352348 83.383571 -0.087228 4.176228 21.454560 -0.003110 -0.000017 6.287233 -0.112611 0.073445 2.561471 -0.226824 0.144435 2.243369 -0.225815 0.145807 17.588005 0.527416 0.435431 -17.664268 -0.287564 0.571359 -82.993793 -80.548359 -99.641060 -14.084758 -7.073368 -8.214919 -6.997000 -12.474569 0.824926 13.672801 7.767020 4.423374 -175.828604 89.001422 5.846075 -3.660489 3.551286 7.249027 -14.794156 17.158419 -1.185750 14.950883 1.130311 1.466393 
-22.530340 92.145950 317.111115 90.610628 5.062144 89.956050 -173.779588 -4.407869 -179.415341 -8.995922 -2.883434 -3.519984 82.548976 2.116700 -1.764000 21.454551 0.003084 -0.000001 -176.972332 5.144799 -179.938383 -13.860285 1.251282 1.435738 83.353026 -0.142599 4.186043 21.454562 -0.003109 -0.000017 6.292933 -0.114445 0.077266 2.572858 -0.229910 0.152057 2.254759 -0.228839 0.153428 17.650599 0.482303 0.442897 -17.651009 -0.224460 0.555503 -82.979121 -80.571329 -99.653566 -14.072940 -7.134907 -8.119264 -6.990497 -12.436649 0.824913 13.639428 7.757344 4.363949 -176.280175 89.022814 5.394077 -3.678961 3.541605 7.262908 -14.833974 17.162954 -1.185741 14.948935 1.133370 1.348098 
-22.525200 92.147926 317.065399 90.610615 5.093061 89.969048 -173.781049 -4.409796 -179.403388 -8.996801 -2.890718 -3.519405 82.538540 2.120042 -1.747949 21.454553 0.003082 -0.000001 -176.937184 5.138599 179.851667 -13.793071 1.287815 1.566462 83.317455 -0.228500 4.206805 21.454560 -0.003100 -0.000017 6.298078 -0.115941 0.077223 2.583157 -0.233002 0.151909 2.265057 -0.231973 0.153329 17.712771 0.442835 0.450193 -17.638986 -0.167221 0.541715 -82.950359 -80.603445 -99.679494 -14.056541 -7.202746 -8.008562 -6.980777 -12.406553 0.824912 13.604572 7.799157 4.351070 -176.844171 89.047348 4.829503 -3.685298 3.536177 7.289475 -14.868627 17.174982 -1.185730 14.932245 1.140396 1.217540 
-22.520309 92.149986 317.018188 90.612643 5.122574 90.000528 -173.793590 -4.413603 -179.391066 -9.008311 -2.897384 -3.507452 82.529005 2.116027 -1.729704 21.454551 0.003086 -0.000001 -176.892774 5.128100 179.574539 -13.708839 1.331464 1.748574 83.281118 -0.348007 4.238157 21.454558 -0.003114 -0.000019 6.303299 -0.117387 0.073848 2.593597 -0.236200 0.145106 2.275497 -0.235186 0.146525 17.773361 0.425882 0.458626 -17.627665 -0.128683 0.536136 -82.884776 -80.640902 -99.741710 -14.035506 -7.255485 -7.947353 -6.986772 -12.417629 0.824914 13.574639 7.868586 4.446995 -177.699543 89.066855 3.973081 -3.677530 3.543613 7.311274 -14.892939 17.192884 -1.185738 14.900959 1.154878 1.096719 
-22.516701 92.150780 316.971985 90.615471 5.156780 90.048265 -173.813274 -4.417874 -179.395643 -9.040342 -2.898875 -3.474899 82.526717 2.098414 -1.708514 21.454551 0.003104 0.000002 -176.837463 5.116196 179.257686 -13.619835 1.385799 1.963442 83.250123 -0.490053 4.272691 21.454557 -0.003112 -0.000019 6.310043 -0.119098 0.067553 2.607127 -0.239687 0.132436 2.289015 -0.238750 0.133891 17.831853 0.442936 0.467720 -17.617262 -0.115910 0.540878 -82.764681 -80.680735 -99.858547 -14.013520 -7.300376 -7.907241 -7.000954 -12.455323 0.824908 13.538722 7.932600 4.531126 -178.921545 89.073385 2.749398 -3.656101 3.579009 7.288856 -14.883505 17.204007 -1.185748 14.825930 1.174143 1.019258 
-22.513130 92.150589 316.931610 90.619576 5.196216 90.110624 -173.830924 -4.420702 -179.395492 -9.081142 -2.898311 -3.436321 82.526225 2.076513 -1.687613 21.454550 0.003098 -0.000001 -176.766156 5.108304 178.981747 -13.523755 1.440241 2.162965 83.223178 -0.622558 4.302851 21.454557 -0.003111 -0.000019 6.317852 -0.121317 0.058553 2.622717 -0.243993 0.114408 2.304620 -0.243141 0.115885 17.887424 0.486438 0.475961 -17.607743 -0.123619 0.552276 -82.612545 -80.720487 -100.007534 -13.992903 -7.342465 -7.872005 -7.019003 -12.508181 0.824920 13.499490 8.012702 4.520278 179.988640 89.070639 1.657969 -3.630938 3.638539 7.213804 -14.847829 17.203812 -1.185736 14.769379 1.209685 0.990750 
-22.507570 92.150543 316.897186 90.625518 5.232382 90.172677 -173.844338 -4.418697 -179.375944 -9.113673 -2.896455 -3.410285 82.526314 2.062350 -1.670243 21.454551 0.003099 0.000000 -176.690642 5.109901 178.852328 -13.423874 1.472499 2.276917 83.196717 -0.697718 4.320963 21.454558 -0.003109 -0.000019 6.324335 -0.124267 0.050028 2.635723 -0.249474 0.097270 2.317628 -0.248756 0.098791 17.939528 0.547799 0.481792 -17.599270 -0.145207 0.566243 -82.444591 -80.758265 -100.172456 -13.976129 -7.379406 -7.836959 -7.034329 -12.541252 0.824919 13.454339 8.002356 4.530236 179.187650 89.062259 0.855732 -3.599603 3.700787 7.130668 -14.828260 17.213610 -1.185739 14.785770 1.236783 1.009744 
-22.500320 92.150970 316.867401 90.631672 5.261276 90.219689 -173.853122 -4.410003 -179.334348 -9.132246 -2.894034 -3.407242 82.525221 2.062762 -1.658328 21.454551 0.003093 0.000001 -176.623720 5.116703 178.808574 -13.328506 1.487797 2.332044 83.170387 -0.733161 4.331868 21.454558 -0.003117 -0.000018 6.328649 -0.127536 0.046894 2.644371 -0.255819 0.086318 2.326272 -0.255172 0.087862 17.988352 0.617514 0.483516 -17.593744 -0.172579 0.577924 -82.275974 -80.791514 -100.338785 -13.964603 -7.409481 -7.801065 -7.045259 -12.544111 0.824912 13.410020 7.922920 4.563800 178.289944 89.054773 -0.043462 -3.556795 3.743799 7.098013 -14.840031 17.261145 -1.185738 14.823920 1.206833 1.053376 
-22.492180 92.151001 316.837585 90.637327 5.283955 90.237878 -173.861304 -4.397287 -179.311932 -9.148119 -2.891747 -3.410134 82.521116 2.066681 -1.648895 21.454551 0.003094 -0.000000 -176.583558 5.128602 178.762279 -13.262656 1.504333 2.369792 83.150955 -0.757753 4.338260 21.454558 -0.003099 -0.000016 6.331872 -0.131042 0.045555 2.650806 -0.263093 0.086589 2.332711 -0.262439 0.088202 18.033431 0.685849 0.480927 -17.592585 -0.198744 0.584538 -82.119214 -80.818978 -100.493495 -13.959253 -7.432433 -7.766305 -7.055623 -12.518261 0.824920 13.390768 7.850593 4.558361 177.125547 89.047970 -1.209720 -3.508438 3.775107 7.081746 -14.860231 17.305439 -1.185745 14.848794 1.197240 1.093324 
-22.483320 92.150757 316.806213 90.642361 5.305337 90.228090 -173.865867 -4.381293 -179.313011 -9.162556 -2.890356 -3.415823 82.516233 2.072082 -1.641280 21.454557 0.003091 0.000001 -176.568532 5.143601 178.719727 -13.230642 1.518046 2.387137 83.137097 -0.768890 4.340617 21.454560 -0.003107 -0.000017 6.335731 -0.135011 0.045594 2.658514 -0.271154 0.097501 2.340411 -0.270426 0.099147 18.074303 0.745867 0.473712 -17.596263 -0.217629 0.583513 -81.985397 -80.839763 -100.625919 -13.961702 -7.448273 -7.732952 -7.069766 -12.464918 0.824921 13.421629 7.771816 4.510781 175.762993 89.045094 -2.574282 -3.465735 3.797702 7.066138 -14.871823 17.325441 -1.185749 14.856930 1.209272 1.152444 
